PathFileType	4	(X/Y/Z)	./resultDataOpenSim/trcMotMarkerGrf/sub06/qtm-15-04.trc
DataRate	CameraRate	NumFrames	NumMarkers	Units	OrigDataRate	OrigDataStartFrame	OrigNumFrames
250.000000	250.000000	11	24	m	250.000000	134	533
Frame#	Time	L.Toe.Tip			R.Toe.Tip			L.Ankle.Lat			R.Ankle.Lat			L.Ankle.Med			R.Ankle.Med			L.Heel			R.Heel			L.Knee.Lat			R.Knee.Lat			L.Knee.Med			R.Knee.Med			L.Thigh.Upper			R.Thigh.Upper			L.ASIS			R.ASIS			V.Sacral			L.Acromium			R.Acromium			C7			L.Elbow			R.Elbow			L.Wrist.Lat			R.Wrist.Lat
		X1	Y1	Z1	X2	Y2	Z2	X3	Y3	Z3	X4	Y4	Z4	X5	Y5	Z5	X6	Y6	Z6	X7	Y7	Z7	X8	Y8	Z8	X9	Y9	Z9	X10	Y10	Z10	X11	Y11	Z11	X12	Y12	Z12	X13	Y13	Z13	X14	Y14	Z14	X15	Y15	Z15	X16	Y16	Z16	X17	Y17	Z17	X18	Y18	Z18	X19	Y19	Z19	X20	Y20	Z20	X21	Y21	Z21	X22	Y22	Z22	X23	Y23	Z23	X24	Y24	Z24

134	0.532	-0.17273596	0.10514993	-0.096503517	-0.72942634	0.035077334	0.052107565	-0.30028694	0.09096508	-0.10649088	-0.86246507	0.069111874	0.068873589	-0.29561106	0.11063521	-0.022463519	-0.83654533	0.087297315	-0.016473794	-0.35117194	0.038056754	-0.047900879	-0.91719194	0.05120302	0.0037655481	-0.38108937	0.45353897	-0.11977947	-0.7083436	0.42609901	0.11176548	-0.39818809	0.44848566	0.0049470809	-0.73613489	0.42964945	-0.019098672	-0.56678826	0.80005711	-0.16773658	-0.62589645	0.77987845	0.1686174	-0.50797205	0.84325979	-0.1109265	-0.52061831	0.83239569	0.13619875	-0.70041049	0.91714046	0.004778396	-0.58186879	1.3185534	-0.17803441	-0.56025588	1.313177	0.18432662	-0.64859938	1.3538329	0.0061759551	-0.69794362	1.0275047	-0.22570598	-0.58305668	0.99846254	0.28289084	-0.61725645	0.79935293	-0.26594122	-0.35688278	0.89371916	0.26375635
135	0.536	-0.15687018	0.10911967	-0.095515395	-0.72933456	0.035060427	0.052033726	-0.28420821	0.092416257	-0.10656639	-0.86214052	0.06974613	0.068579488	-0.28057183	0.11183383	-0.022476367	-0.83590851	0.087609471	-0.016786308	-0.33402154	0.03789442	-0.049185207	-0.91703026	0.052092234	0.0036407431	-0.37437409	0.45184066	-0.11874891	-0.70433266	0.4253909	0.11151831	-0.39157228	0.44657729	0.0061573598	-0.7319148	0.42900171	-0.01945301	-0.55973874	0.79799905	-0.16785509	-0.61974166	0.77787398	0.16818007	-0.50101302	0.84124702	-0.11102597	-0.51445607	0.83058324	0.13619663	-0.69393971	0.91542372	0.0042129301	-0.57540374	1.316632	-0.17821547	-0.55399116	1.3113118	0.18422713	-0.64231537	1.3522679	0.0058990164	-0.69241635	1.0261917	-0.22565067	-0.57503719	0.99659368	0.2833147	-0.61339379	0.79761438	-0.26646484	-0.34792674	0.89408009	0.26277046
136	0.54	-0.14163743	0.11303717	-0.094549073	-0.72924886	0.035045861	0.051966429	-0.26860991	0.093975012	-0.10654246	-0.86178325	0.070422721	0.068340494	-0.26605341	0.11305109	-0.022393968	-0.83525922	0.087960843	-0.017048718	-0.31738113	0.037769007	-0.050667682	-0.91676312	0.05308776	0.0033960954	-0.36733457	0.45022199	-0.11767938	-0.70037126	0.42461694	0.11124695	-0.38494509	0.44473217	0.0073827212	-0.72760776	0.42836375	-0.019805087	-0.55269092	0.79592372	-0.16797686	-0.61363088	0.7759058	0.16778706	-0.49393053	0.8392298	-0.11114725	-0.50827609	0.8287947	0.13618452	-0.68721961	0.91364946	0.0036047203	-0.56890543	1.3147099	-0.17841345	-0.54767948	1.3094769	0.18410818	-0.63600133	1.3506369	0.0056103926	-0.68680303	1.0248515	-0.22559543	-0.56702819	0.99473472	0.28371948	-0.60944492	0.79586186	-0.26700038	-0.33911518	0.89438773	0.26182245
137	0.544	-0.12700102	0.11688746	-0.093518871	-0.72917558	0.035027398	0.051906973	-0.25354946	0.09558712	-0.10642303	-0.86137442	0.071147627	0.068152785	-0.25206662	0.11425209	-0.022198082	-0.83459834	0.088358635	-0.017251687	-0.30139639	0.037771562	-0.051991338	-0.91641203	0.05418279	0.0030885081	-0.35994092	0.44870117	-0.11659995	-0.69642167	0.42379515	0.11098316	-0.37832704	0.44295635	0.0085908764	-0.723206	0.42772143	-0.020147172	-0.54565496	0.79384435	-0.168083	-0.6075825	0.77399736	0.1674284	-0.48672976	0.83721342	-0.11128774	-0.5020787	0.82703155	0.13617314	-0.68024731	0.91183693	0.0028868842	-0.56238156	1.3127912	-0.17863472	-0.54133069	1.3076679	0.18396414	-0.6296339	1.3489461	0.0053269815	-0.68109963	1.0234859	-0.22554281	-0.5590362	0.99288595	0.28409999	-0.60539475	0.79411609	-0.26755578	-0.33041802	0.8946357	0.26088265
138	0.548	-0.11293688	0.12059929	-0.092385598	-0.72912697	0.034990416	0.051856167	-0.23909509	0.097207324	-0.10623008	-0.86091478	0.071928884	0.068013944	-0.23861769	0.11540818	-0.021900033	-0.83392046	0.088810106	-0.017399769	-0.28615709	0.037962573	-0.052867891	-0.91603247	0.055372711	0.0028332382	-0.35242147	0.44726207	-0.11556074	-0.69240737	0.42295355	0.11075622	-0.37173288	0.44124526	0.0097490737	-0.71870061	0.42706079	-0.020476022	-0.53861385	0.79177504	-0.16816405	-0.60162292	0.7721747	0.16708949	-0.47946143	0.83519773	-0.11142918	-0.49583898	0.82528603	0.13616472	-0.67306828	0.9100011	0.0020273016	-0.55584092	1.3108836	-0.17888015	-0.53496949	1.3058736	0.18379497	-0.62321503	1.3472298	0.0050449626	-0.67530369	1.0220962	-0.22549142	-0.5510648	0.99104962	0.28444749	-0.60118978	0.79241883	-0.26811973	-0.32179154	0.89481976	0.25993564
139	0.552	-0.099451952	0.12406803	-0.091172921	-0.72911475	0.034920559	0.051814684	-0.22528183	0.098775065	-0.10595955	-0.86041378	0.072777178	0.067925448	-0.22571949	0.11648632	-0.021521031	-0.83322185	0.08932333	-0.017507108	-0.27166258	0.038297858	-0.053267307	-0.9156514	0.056667102	0.0026916875	-0.34497168	0.44589717	-0.11460742	-0.68826791	0.42210804	0.11057303	-0.36516917	0.4395853	0.01082223	-0.71408512	0.4263714	-0.020787788	-0.53152047	0.78972913	-0.16823036	-0.5957944	0.77046999	0.16675285	-0.47218115	0.83318616	-0.11155767	-0.489541	0.82355212	0.1361598	-0.66573873	0.90815446	0.00104008	-0.54928561	1.3089969	-0.17914735	-0.52862269	1.3040923	0.18360798	-0.61675314	1.3455201	0.0047521485	-0.66941157	1.0206858	-0.22543115	-0.54311666	0.98923476	0.2847606	-0.59677162	0.79080288	-0.26867263	-0.31322031	0.89494186	0.25898373
140	0.556	-0.086572087	0.12718916	-0.089935073	-0.72913164	0.034823671	0.051783237	-0.21210004	0.1002071	-0.10557053	-0.85986835	0.073707589	0.067891718	-0.21337282	0.11745549	-0.021053653	-0.83250744	0.089911099	-0.017589107	-0.25787331	0.038681168	-0.053308524	-0.9152723	0.058074042	0.0026715829	-0.33754856	0.44463731	-0.11375592	-0.68398659	0.42126568	0.11042259	-0.35862772	0.4379592	0.011778572	-0.70935062	0.42564595	-0.021073607	-0.52432903	0.78772061	-0.16829587	-0.59014893	0.76892169	0.16641136	-0.46491118	0.8311887	-0.11167037	-0.48320172	0.82183181	0.13615702	-0.65830852	0.90630978	-3.5278417e-05	-0.54271036	1.3071357	-0.17943574	-0.52230436	1.3023297	0.18341273	-0.61025197	1.343835	0.0044386222	-0.66341606	1.019254	-0.22534027	-0.53519558	0.98745376	0.28503766	-0.59217249	0.78923371	-0.26920097	-0.30471546	0.89500532	0.25804096
141	0.56	-0.07431505	0.12987991	-0.088709292	-0.72914424	0.034733008	0.051763634	-0.1995258	0.10142416	-0.10502916	-0.85925666	0.074729677	0.067915782	-0.20154565	0.11830989	-0.020461671	-0.83177908	0.090591829	-0.017652493	-0.24476846	0.039025481	-0.053098869	-0.91490175	0.059588603	0.0027643865	-0.33000944	0.44352471	-0.11299636	-0.67958011	0.42042456	0.11029432	-0.35208009	0.43635439	0.01260325	-0.70448396	0.42487951	-0.021323747	-0.5170255	0.78576476	-0.16835695	-0.58470143	0.76756104	0.16609633	-0.45764274	0.82921804	-0.11176257	-0.47685005	0.82013342	0.13615161	-0.65081874	0.90448072	-0.0011562734	-0.53610933	1.305297	-0.17974813	-0.51600357	1.3005889	0.18321153	-0.60371705	1.3421769	0.0041021645	-0.65731126	1.0177907	-0.22519952	-0.52730256	0.98570922	0.28526467	-0.58756304	0.78760628	-0.26971849	-0.29629468	0.89500911	0.25712102
142	0.564	-0.062674014	0.13208852	-0.087493939	-0.72911759	0.034682166	0.051759598	-0.18755332	0.10237521	-0.10434977	-0.85854792	0.075837242	0.067992687	-0.19021764	0.11904826	-0.019732117	-0.83102303	0.091379328	-0.017683679	-0.23235308	0.03926587	-0.052696743	-0.91455108	0.06120391	0.0029657972	-0.32228507	0.442575	-0.11230764	-0.6750666	0.41957368	0.11018694	-0.345484	0.43476907	0.013303788	-0.69947318	0.42406829	-0.021531851	-0.50961735	0.78388093	-0.16839807	-0.57932996	0.76637545	0.16590016	-0.45035722	0.8272857	-0.11182365	-0.47049258	0.81846732	0.13614677	-0.64330189	0.90268183	-0.0022887026	-0.52948078	1.3034786	-0.18008391	-0.50970116	1.2988693	0.18299415	-0.59715776	1.3405404	0.0037453542	-0.65110443	1.0162886	-0.22502338	-0.51943255	0.98399221	0.2854257	-0.58309625	0.78585582	-0.27026891	-0.28795015	0.89494694	0.25621175
143	0.568	-0.051630893	0.13379052	-0.086269771	-0.72904251	0.034674884	0.051774164	-0.17619447	0.103034	-0.10358084	-0.85772295	0.077014957	0.068112762	-0.1794389	0.11961768	-0.018921743	-0.8302186	0.09227019	-0.017651292	-0.2206392	0.039354361	-0.052144998	-0.91420091	0.062930535	0.0032601639	-0.31439356	0.44176902	-0.1116686	-0.67044364	0.41870507	0.11010611	-0.33880233	0.43321558	0.013898257	-0.69431155	0.42320925	-0.021690105	-0.5021049	0.78208814	-0.16841672	-0.57369862	0.76526803	0.16594112	-0.44304084	0.82540102	-0.11184732	-0.46411731	0.8168386	0.13615723	-0.63578273	0.90092935	-0.0034056424	-0.52282893	1.3016875	-0.18043536	-0.50339801	1.2971699	0.18275053	-0.59057921	1.3389235	0.0033672347	-0.64481611	1.0147654	-0.22486155	-0.51158087	0.98230035	0.28551932	-0.57866675	0.78405389	-0.27086747	-0.27965138	0.89481376	0.2552773
144	0.572	-0.041175762	0.13497803	-0.085024367	-0.72893214	0.034688732	0.051806376	-0.16545644	0.10338615	-0.10276999	-0.85680694	0.078253304	0.068278021	-0.16929373	0.11992021	-0.018127491	-0.8293559	0.093248886	-0.017534199	-0.20963423	0.03925438	-0.051497775	-0.91377534	0.064796474	0.0035883653	-0.30638649	0.44106657	-0.11106451	-0.66569461	0.41782034	0.1100582	-0.33201702	0.43172322	0.014398271	-0.68899625	0.42230418	-0.021787697	-0.49448512	0.78039305	-0.16842951	-0.56739537	0.76408484	0.16624846	-0.43568326	0.82357116	-0.11183292	-0.45771417	0.81524165	0.13618948	-0.62828892	0.899242	-0.0044700298	-0.5161608	1.2999349	-0.18079773	-0.49711353	1.2954943	0.18248201	-0.58397864	1.3373302	0.0029623457	-0.63845681	1.013256	-0.22474521	-0.50374996	0.98064617	0.28555415	-0.57396683	0.78233398	-0.27145294	-0.27139687	0.89461346	0.25430727
